<?xml version="1.0" encoding="UTF-8"?>
<!-- Created with Inkscape (http://www.inkscape.org/) -->
<svg width="58.162mm" height="50.739mm" version="1.1" viewBox="0 0 58.162 50.739" xmlns="http://www.w3.org/2000/svg" xmlns:cc="http://creativecommons.org/ns#" xmlns:dc="http://purl.org/dc/elements/1.1/" xmlns:rdf="http://www.w3.org/1999/02/22-rdf-syntax-ns#">
 <metadata>
  <rdf:RDF>
   <cc:Work rdf:about="">
    <dc:format>image/svg+xml</dc:format>
    <dc:type rdf:resource="http://purl.org/dc/dcmitype/StillImage"/>
    <dc:title/>
   </cc:Work>
  </rdf:RDF>
 </metadata>
 <g transform="translate(135.8 198.9)">
  <g transform="matrix(.57471 0 0 .57471 -66.347 -244.48)">
   <path d="m22.451 159.89c-0.13025 5.886 1.9664 8.8902 7.8845 6.949 10.067-9.1762 21.514-16.973 30.201-27.529l-16.571-1.6036-6.0136-23.119s10.156 18.842 11.225 18.842 23.386 1.6036 23.386 1.6036c4.0416-4.558 1.86-7.1359-1.8709-9.2208l-16.704-0.93545-7.8845-16.17c4.1775-5.0125-11.531-13.396-22.317 0.13363 2.7578-2.4993-15.042 19.86 0.13364 34.21 4.8122 1.6888 10.255 1.486 15.769 1.0691z"/>
   <circle cx="46.906" cy="89.465" r="10.156"/>
   <path d="m110.38 167.11c-3.7032-2.1475-2.1815-3.9466-0.66817-5.7463 0 0 5.3454 0.40091 5.6127-0.53453-1.9704-1.9084 0.41896-9.7591 2.2718-8.9535-0.32545-1.8387-0.58703-3.7686-3.3409-2.1382l-2.0045 4.009c-2.0045 1.0823-4.009-0.0855-6.0136-0.26727l-3.0736 11.76c-0.26032 2.5827-6.373 3.5415-5.479-2.2718l3.1404-15.836-9.4213-2.6059s-5.8799 3.2072-5.7463 2.5391c-3.6904 0.0488-4.7693-5.562-2.0045-6.0136 1.0633-0.17367 7.2163-2.6727 7.2163-2.6727l6.2808 0.66818s-1.9043-6.5147-3.4745-7.2163c-1.7707-1.2361-5.479 0.30068-6.0136 0.0334-1.8714 0.95335-6.642-5.71-6.6817-6.5815 1.5013-1.2136 2.922-2.5115 4.8109-3.1404 0.47829-2.8302 2.8409-4.5733 5.6127-6.0804-0.77514 7.7551 2.4827 17.309 11.225 7.6172 6.7878 11.152 26.956 16.655 29.801 31.404 3.9103-2.8524 6.464-6.1966 8.6863-11.359 1.0245-0.53454 1.6482-0.35637 1.8709 0.53454-1.507 9.2978-6.2593 12.713-11.225 16.303-2.1253 9.3283-12.563 6.7815-21.382 6.5481z"/>
   <path d="m95.24 115.2c2.4075-2.8365 7.8217 1.0311 7.1815 2.4568 0.88144 0.77774-5.4085 7.0597-6.5201 7.1815-0.65402 0.0717-2.1439-8.3493-0.66146-9.6384z"/>
  </g>
  <g transform="matrix(.88244 0 0 .88244 -80.021 -319.83)">
   <path d="m-111.53 158.11c-12.067 7e-5 -21.849 8.0383-21.849 17.954 2.9e-4 9.9154 9.7824 17.953 21.849 17.953 3.4544-2e-5 5.7448-0.26304 9.6256-1.8317l14.319 2.3549c0.67506 0.11102-6.7635-7.3664-6.3162-7.8674 2.6538-2.9722 4.2212-6.6403 4.2214-10.609 4.8e-5 -9.9156-9.7822-17.954-21.849-17.954zm-11.339 13.607c2.4009-1.6e-4 4.3472 1.9462 4.347 4.347-1.3e-4 2.4007-1.9464 4.3467-4.347 4.3465-2.4005-1.2e-4 -4.3464-1.946-4.3465-4.3465-1.6e-4 -2.4007 1.9458-4.3469 4.3465-4.347zm11.339 0c2.4009-1.6e-4 4.3472 1.9462 4.347 4.347-1.2e-4 2.4007-1.9464 4.3467-4.347 4.3465-2.4005-1.2e-4 -4.3464-1.946-4.3465-4.3465-1.6e-4 -2.4007 1.9458-4.3469 4.3465-4.347zm11.339 0c2.4005 1.2e-4 4.3464 1.946 4.3465 4.3465 1.62e-4 2.4007-1.9458 4.3469-4.3465 4.347-2.4007-1.2e-4 -4.3467-1.9464-4.3465-4.347 1.3e-4 -2.4005 1.946-4.3464 4.3465-4.3465z"/>
   <path d="m-134.39 174.38s-7.4269-1.0531-9.1312-1.354c-1.1167-0.19709-11.623 2.4568-11.623 2.4568l3.7568-6.2056c-23.382-28.859 29.96-42.428 35.385-14.186" fill="none" stroke="#000" stroke-width="5"/>
  </g>
  <g transform="matrix(.47971 0 0 .47971 -10.377 -212.64)">
   <g transform="translate(.6287 -7.7136)">
    <path d="m-217.29 49.241c-1.4455 5.3948-6.0186 3.4724-6.949 0 0-4.5126-7.6526-10.341-10.424 0-1.2873 4.8042-6.8154 4.079-6.8154 0 0-17.747 24.188-16.619 24.188 0z"/>
    <path d="m-160.78 49.241c-1.4455 5.3948-6.0186 3.4724-6.949 0 0-4.5126-7.6526-10.341-10.424 0-1.2873 4.8042-6.8154 4.079-6.8154 0 0-17.747 24.188-16.619 24.188 0z"/>
    <path transform="matrix(.26458 0 0 .26458 -.6287 7.7136)" d="m-802.98 180.15c-11.946 0.61592-21.375 10.375-12.678 20.537 0.9129 1.0667 41.792 38.152 42.32 54.107-21.699 102.22-136.55 84.941-176.89 16.287-18.155-30.898-37.95-7.6795-37.951 0.63281-3e-3 20.065 32.818 144.22 165.91 193.44 13.941 16.58 15.992 37.172 63.24 42.852 1e-5 -0.96868 0.0277-1.6954-0.0254-2.6074 0-11.593 0.16665-18.74 0.16665-18.74-4.8509-13.23-27.282 0.21617-41.596-41.146l-1.4277-106.43 31.428-26.43v79.287c0.78735 11.908 6.0254 13.645 11.43 15 5.4042-1.355 10.642-3.0922 11.43-15v-79.287l31.428 26.43-1.4277 106.43c-14.315 41.363-36.412 27.916-41.263 41.146 0 0-0.18517 7.1394-0.16665 18.74 5e-3 0.91197 0.0254 1.6387 0.0254 2.6074 47.248-5.6799 49.249-26.271 63.189-42.852 133.09-49.214 165.91-173.37 165.91-193.44-1e-3 -8.3123-19.796-31.53-37.951-0.63281-40.341 68.654-155.19 85.933-176.89-16.287 0.52857-15.955 41.407-53.041 42.32-54.107 8.6973-10.163-0.73159-19.921-12.678-20.537h-43.93zm-135.36 149.82c33.59 17.265 67.25 34.323 111.07 20.893v78.215c-51.938-17.959-90.084-52.102-111.07-99.107zm358.57 0c-20.988 47.005-59.134 81.148-111.07 99.107v-78.215c43.822 13.431 77.482-3.6276 111.07-20.893z"/>
   </g>
  </g>
 </g>
</svg>
