<?xml version="1.0" encoding="UTF-8" standalone="no"?>
<svg
   xmlns:dc="http://purl.org/dc/elements/1.1/"
   xmlns:cc="http://creativecommons.org/ns#"
   xmlns:rdf="http://www.w3.org/1999/02/22-rdf-syntax-ns#"
   xmlns:svg="http://www.w3.org/2000/svg"
   xmlns="http://www.w3.org/2000/svg"
   id="svg8"
   version="1.1"
   viewBox="0 0 67.920906 50.491589"
   height="50.491589mm"
   width="67.920906mm">
  <defs
     id="defs2" />
  <metadata
     id="metadata5">
    <rdf:RDF>
      <cc:Work
         rdf:about="">
        <dc:format>image/svg+xml</dc:format>
        <dc:type
           rdf:resource="http://purl.org/dc/dcmitype/StillImage" />
        <dc:title></dc:title>
      </cc:Work>
    </rdf:RDF>
  </metadata>
  <g
     transform="translate(-18.097715,-105.37796)"
     id="layer1">
    <path
       id="path3724"
       d="m 56.790922,140.89583 c -4.644599,0.41442 -14.17387,-10.97539 -13.796131,-14.45759 -1.511904,-0.37798 -12.662202,0.66146 -12.662202,0.66146 -4.353112,2.67733 -3.329385,5.35466 -3.96875,8.03199 -2.138722,4.18641 -4.949236,5.98423 -8.220982,6.14211 3.055308,1.10913 6.110615,-0.009 9.165923,-4.06324 1.10171,4.76428 -2.550915,7.09342 -6.520089,9.26042 l 0.755952,9.07142 4.157738,0.18899 c 0.04487,-0.98313 -0.460152,-1.69131 -2.173363,-1.79539 -0.08836,-1.83316 -0.428326,-3.62438 0.188988,-5.57515 8.901652,-4.53937 11.737879,-7.92342 12.756696,-10.9613 4.299474,-1.90352 9.233028,3.7822 15.497024,3.40178 0.08345,5.48892 0.0687,11.33135 0.755952,14.64658 l 3.401785,0.0945 c 0.369598,-1.14612 -0.566038,-1.24806 -1.417409,-1.41741 -0.02359,-4.55303 0.234583,-9.04971 2.078868,-13.22917 z"
       style="fill:#000000;stroke:#000000;stroke-width:0.26458332px;stroke-linecap:butt;stroke-linejoin:miter;stroke-opacity:1" />
    <path
       id="path3728"
       d="m 50.62133,125.50995 c 1.996943,4.82592 4.859586,8.39886 10.223059,8.35217 -0.541137,0.12884 3.077805,-9.78815 5.278575,-10.15624 0.935442,-0.0668 5.078118,-0.13363 5.078118,-0.13363 0.116326,0.40714 1.247367,-3.24649 0.80181,-3.4745 -0.543942,-0.27836 -3.357007,-0.92473 -3.274052,-0.86863 0.123436,0.12344 -2.713685,-3.11459 -3.207235,-3.27405 -0.267268,0.0668 -2.873147,-0.66818 -3.140416,-0.53454 0.179068,0.41837 -11.454101,10.28448 -11.759859,10.08942 z"
       style="fill:#000000;stroke:#000000;stroke-width:0.26458332px;stroke-linecap:butt;stroke-linejoin:miter;stroke-opacity:1" />
    <circle
       r="15.308036"
       cx="61.988094"
       cy="122.186"
       id="path3730"
       style="fill:none;stroke:#000000;stroke-width:3;stroke-miterlimit:4;stroke-dasharray:none;stroke-opacity:1" />
    <path
       id="path4539"
       d="m 78.942724,137.48368 c 2.627794,2.6278 8.771973,9.29583 6.631252,11.43654 -1.857243,1.85723 -8.761496,-4.0507 -11.38929,-6.67849 -2.627789,-2.6278 -1.932437,-4.06269 -0.618541,-5.37658 1.313895,-1.3139 2.748788,-2.00925 5.376579,0.61853 z"
       style="fill:#000000;fill-opacity:1;stroke:none;stroke-width:1.5105834;stroke-miterlimit:4;stroke-dasharray:none;stroke-opacity:1" />
  </g>
</svg>
