<?xml version="1.0" encoding="UTF-8" standalone="no"?>
<svg
   xmlns:dc="http://purl.org/dc/elements/1.1/"
   xmlns:cc="http://creativecommons.org/ns#"
   xmlns:rdf="http://www.w3.org/1999/02/22-rdf-syntax-ns#"
   xmlns:svg="http://www.w3.org/2000/svg"
   xmlns="http://www.w3.org/2000/svg"
   id="svg8"
   version="1.1"
   viewBox="0 0 27.880488 27.263031"
   height="27.263031mm"
   width="27.880487mm">
  <defs
     id="defs2" />
  <metadata
     id="metadata5">
    <rdf:RDF>
      <cc:Work
         rdf:about="">
        <dc:format>image/svg+xml</dc:format>
        <dc:type
           rdf:resource="http://purl.org/dc/dcmitype/StillImage" />
        <dc:title></dc:title>
      </cc:Work>
    </rdf:RDF>
  </metadata>
  <g
     transform="translate(-14.487654,-62.8145)"
     id="layer1">
    <g
       id="g948" />
    <circle
       r="1.3763188"
       cy="80.286003"
       cx="30.966372"
       id="path915"
       style="opacity:1;fill:#000000;fill-opacity:1;stroke:#000000;stroke-width:0.64733946;stroke-miterlimit:4;stroke-dasharray:none;stroke-opacity:1" />
    <path
       id="path921"
       d="m 27.291989,70.762272 c -3.472044,-0.144603 -5.129372,0.774929 -5.129372,0.774929 -1.381378,2.882142 -2.825074,5.787028 -3.768298,8.932062 0.874606,3.499995 1.885077,6.607792 4.288016,8.336725 1.37304,0.987913 3.102554,1.043083 4.677455,0.401596"
       style="fill:none;stroke:#000000;stroke-width:0.89999998;stroke-linecap:butt;stroke-linejoin:miter;stroke-miterlimit:4;stroke-dasharray:none;stroke-opacity:1" />
    <circle
       style="opacity:1;fill:#000000;fill-opacity:1;stroke:#000000;stroke-width:0.64733946;stroke-miterlimit:4;stroke-dasharray:none;stroke-opacity:1"
       id="circle927"
       cx="23.248964"
       cy="80.286003"
       r="1.3763188" />
    <path
       id="path931"
       d="m 29.12147,85.675874 c 0,0.474605 -1.029817,1.260948 -2.096173,1.260948 -1.066356,0 -2.048926,-0.809966 -2.048926,-1.284571 0,-0.474605 0.98257,-0.729419 2.048926,-0.729419 1.066356,0 2.096173,0.278437 2.096173,0.753042 z"
       style="opacity:1;fill:#000000;fill-opacity:1;stroke:#000000;stroke-width:0.85857362;stroke-miterlimit:4;stroke-dasharray:none;stroke-opacity:1" />
    <path
       id="path934"
       d="m 27.086383,89.356248 c 0,-2.456844 0,-2.433222 0,-2.433222"
       style="fill:none;stroke:#000000;stroke-width:1;stroke-linecap:butt;stroke-linejoin:miter;stroke-miterlimit:4;stroke-dasharray:none;stroke-opacity:1" />
    <path
       style="fill:none;stroke:#000000;stroke-width:0.89999998;stroke-linecap:butt;stroke-linejoin:miter;stroke-miterlimit:4;stroke-dasharray:none;stroke-opacity:1"
       d="m 27.251387,70.762272 c 3.472044,-0.144603 5.129372,0.774929 5.129372,0.774929 1.381378,2.882142 2.825074,5.787028 3.768298,8.932062 -0.874606,3.499995 -1.885077,6.607792 -4.288016,8.336725 -1.37304,0.987913 -3.102554,1.043083 -4.677455,0.401596"
       id="path994" />
    <path
       id="path919"
       d="m 32.534584,71.473477 c 3.338049,-0.21379 6.15863,1.242674 6.92469,4.722089 0.497716,2.260608 -1.466926,7.75564 -1.712934,7.037769 -0.664112,0.408882 -5.233053,-11.743294 -5.211756,-11.759858 z"
       style="fill:none;stroke:#000000;stroke-width:0.89999998;stroke-linecap:butt;stroke-linejoin:miter;stroke-miterlimit:4;stroke-dasharray:none;stroke-opacity:1" />
    <g
       transform="rotate(-5.6567501,20.999804,79.359207)"
       id="g1025">
      <path
         style="fill:#ffffff;stroke:#000000;stroke-width:1.12901855;stroke-linecap:butt;stroke-linejoin:miter;stroke-miterlimit:4;stroke-dasharray:none;stroke-opacity:1"
         d="m 28.370569,66.956081 -2.385645,4.174514 c 1.311835,2.870034 3.27414,5.331214 8.934912,5.467631 l 2.522919,-4.111184"
         id="path889" />
      <path
         style="fill:none;stroke:#000000;stroke-width:1.12901855;stroke-linecap:butt;stroke-linejoin:miter;stroke-miterlimit:4;stroke-dasharray:none;stroke-opacity:1"
         d="m 31.985997,71.530666 c 1.333568,0 9.735047,1.333568 9.735047,1.333568 L 36.253405,65.796315 26.118276,63.92932 Z"
         id="path885" />
      <path
         style="fill:none;stroke:#000000;stroke-width:1.12901855;stroke-linecap:butt;stroke-linejoin:miter;stroke-miterlimit:4;stroke-dasharray:none;stroke-opacity:1"
         d="m 41.355157,72.702418 -0.581388,3.122059"
         id="path887" />
    </g>
    <path
       style="fill:none;stroke:#000000;stroke-width:0.89999998;stroke-linecap:butt;stroke-linejoin:miter;stroke-miterlimit:4;stroke-dasharray:none;stroke-opacity:1"
       d="m 21.950083,71.520724 c -3.338049,-0.21379 -6.15863,1.242674 -6.92469,4.722089 -0.497716,2.260608 1.466926,7.75564 1.712934,7.037769 0.664112,0.408882 5.233053,-11.743294 5.211756,-11.759858 z"
       id="path1020" />
    <circle
       r="0.57876551"
       cy="74.053665"
       cx="40.304714"
       id="path1027"
       style="opacity:1;fill:#000000;fill-opacity:1;stroke:#000000;stroke-width:0.57746005;stroke-miterlimit:4;stroke-dasharray:none;stroke-opacity:1" />
    <g
       transform="translate(121.98021,-1.654757)"
       id="g1037">
      <path
         style="opacity:1;fill:#000000;fill-opacity:1;stroke:#000000;stroke-width:1.18552458;stroke-miterlimit:4;stroke-dasharray:none;stroke-opacity:1"
         d="m -42.709575,72.293152 c 0,3.340964 -2.708387,7.088785 -6.049351,7.088786 -3.340965,0 -6.049352,-3.747821 -6.049352,-7.088786 0,-3.340965 2.708387,-6.049351 6.049352,-6.049351 3.340964,0 6.049351,2.708387 6.049351,6.049351 z"
         id="path1029" />
      <path
         style="opacity:1;fill:#000000;fill-opacity:1;stroke:#000000;stroke-width:1.49164629;stroke-miterlimit:4;stroke-dasharray:none;stroke-opacity:1"
         d="m -53.474047,80.67483 c 2.402383,2.734871 6.876747,3.028309 9.594405,-0.09163 3.149206,1.692462 5.357922,3.410561 6.143588,8.699943 l -22.084408,0.06682 c 0.813901,-4.869243 3.195817,-7.0753 6.346415,-8.675132 z"
         id="rect1032" />
    </g>
  </g>
</svg>
