<?xml version="1.0" encoding="UTF-8" standalone="no"?>
<svg
   xmlns:dc="http://purl.org/dc/elements/1.1/"
   xmlns:cc="http://creativecommons.org/ns#"
   xmlns:rdf="http://www.w3.org/1999/02/22-rdf-syntax-ns#"
   xmlns:svg="http://www.w3.org/2000/svg"
   xmlns="http://www.w3.org/2000/svg"
   id="svg8"
   version="1.1"
   viewBox="0 0 19.397934 21.786402"
   height="21.786402mm"
   width="19.397934mm">
  <defs
     id="defs2" />
  <metadata
     id="metadata5">
    <rdf:RDF>
      <cc:Work
         rdf:about="">
        <dc:format>image/svg+xml</dc:format>
        <dc:type
           rdf:resource="http://purl.org/dc/dcmitype/StillImage" />
        <dc:title></dc:title>
      </cc:Work>
    </rdf:RDF>
  </metadata>
  <g
     transform="translate(-12.583372,-71.241347)"
     id="layer1">
    <path
       id="path3724"
       d="m 56.790922,140.89583 c -4.644599,0.41442 -14.17387,-10.97539 -13.796131,-14.45759 -1.511904,-0.37798 -12.662202,0.66146 -12.662202,0.66146 -4.353112,2.67733 -3.329385,5.35466 -3.96875,8.03199 -2.138722,4.18641 -4.949236,5.98423 -8.220982,6.14211 3.055308,1.10913 6.110615,-0.009 9.165923,-4.06324 1.10171,4.76428 -2.550915,7.09342 -6.520089,9.26042 l 0.755952,9.07142 4.157738,0.18899 c 0.04487,-0.98313 -0.460152,-1.69131 -2.173363,-1.79539 -0.08836,-1.83316 -0.428326,-3.62438 0.188988,-5.57515 8.901652,-4.53937 11.737879,-7.92342 12.756696,-10.9613 4.299474,-1.90352 9.233028,3.7822 15.497024,3.40178 0.08345,5.48892 0.0687,11.33135 0.755952,14.64658 l 3.401785,0.0945 c 0.369598,-1.14612 -0.566038,-1.24806 -1.417409,-1.41741 -0.02359,-4.55303 0.234583,-9.04971 2.078868,-13.22917 z"
       style="fill:#000000;stroke:#000000;stroke-width:0.26458332px;stroke-linecap:butt;stroke-linejoin:miter;stroke-opacity:1" />
    <path
       id="path3728"
       d="m 50.62133,125.50995 c 1.996943,4.82592 4.859586,8.39886 10.223059,8.35217 -0.541137,0.12884 3.077805,-9.78815 5.278575,-10.15624 0.935442,-0.0668 5.078118,-0.13363 5.078118,-0.13363 0.116326,0.40714 1.247367,-3.24649 0.80181,-3.4745 -0.543942,-0.27836 -3.357007,-0.92473 -3.274052,-0.86863 0.123436,0.12344 -2.713685,-3.11459 -3.207235,-3.27405 -0.267268,0.0668 -2.873147,-0.66818 -3.140416,-0.53454 0.179068,0.41837 -11.454101,10.28448 -11.759859,10.08942 z"
       style="fill:#000000;stroke:#000000;stroke-width:0.26458332px;stroke-linecap:butt;stroke-linejoin:miter;stroke-opacity:1" />
    <circle
       r="15.308036"
       cx="61.988094"
       cy="122.186"
       id="path3730"
       style="fill:none;stroke:#000000;stroke-width:3;stroke-miterlimit:4;stroke-dasharray:none;stroke-opacity:1" />
    <path
       id="path4539"
       d="m 78.942724,137.48368 c 2.627794,2.6278 8.771973,9.29583 6.631252,11.43654 -1.857243,1.85723 -8.761496,-4.0507 -11.38929,-6.67849 -2.627789,-2.6278 -1.932437,-4.06269 -0.618541,-5.37658 1.313895,-1.3139 2.748788,-2.00925 5.376579,0.61853 z"
       style="fill:#000000;fill-opacity:1;stroke:none;stroke-width:1.5105834;stroke-miterlimit:4;stroke-dasharray:none;stroke-opacity:1" />
    <g
       id="g4655">
      <ellipse
         style="fill:#000000;fill-opacity:1;stroke:none;stroke-width:2.09764242;stroke-miterlimit:4;stroke-dasharray:none;stroke-opacity:1"
         id="path4564"
         cx="40.507538"
         cy="58.381939"
         rx="0.88627791"
         ry="1.0848881" />
      <ellipse
         ry="1.0848881"
         rx="0.88627791"
         cy="56.305607"
         cx="42.349445"
         id="ellipse4566"
         style="fill:#000000;fill-opacity:1;stroke:none;stroke-width:2.09764242;stroke-miterlimit:4;stroke-dasharray:none;stroke-opacity:1" />
      <ellipse
         style="fill:#000000;fill-opacity:1;stroke:none;stroke-width:2.09764242;stroke-miterlimit:4;stroke-dasharray:none;stroke-opacity:1"
         id="ellipse4568"
         cx="44.76067"
         cy="56.305607"
         rx="0.88627791"
         ry="1.0848881" />
      <ellipse
         ry="1.0848881"
         rx="0.88627791"
         cy="58.448917"
         cx="46.669559"
         id="ellipse4570"
         style="fill:#000000;fill-opacity:1;stroke:none;stroke-width:2.09764242;stroke-miterlimit:4;stroke-dasharray:none;stroke-opacity:1" />
      <path
         style="fill:#000000;stroke:#000000;stroke-width:0.26522127px;stroke-linecap:butt;stroke-linejoin:miter;stroke-opacity:1"
         d="m 43.595257,61.845758 c -0.58453,0.213522 -2.803514,1.473393 -2.791616,-1.611742 0.781437,-1.043962 1.594278,-2.383759 2.768541,-2.365973 z"
         id="path4574" />
      <path
         id="path4576"
         d="m 43.595257,61.845758 c 0.58453,0.213522 2.803514,1.473393 2.791616,-1.611742 -0.781437,-1.043962 -1.594278,-2.383759 -2.768542,-2.365973 z"
         style="fill:#000000;stroke:#000000;stroke-width:0.26522127px;stroke-linecap:butt;stroke-linejoin:miter;stroke-opacity:1" />
      <path
         style="fill:none;stroke:#000000;stroke-width:0.80000001;stroke-linecap:butt;stroke-linejoin:miter;stroke-miterlimit:4;stroke-dasharray:none;stroke-opacity:1"
         d="m 43.469366,54.430188 v -6.378347 c 0,-3.045369 6.331102,-3.199944 6.331102,0 v 13.796131 c 0,2.539939 8.26823,2.45797 8.26823,0 v -7.843006"
         id="path4578" />
      <path
         style="fill:none;stroke:#000000;stroke-width:0.80000001;stroke-linecap:butt;stroke-linejoin:miter;stroke-miterlimit:4;stroke-dasharray:none;stroke-opacity:1"
         d="m 58.068698,54.004965 c 4.806301,-0.396018 6.105163,-4.943789 4.837517,-8.378822"
         id="path4600" />
      <path
         style="fill:none;stroke:#000000;stroke-width:0.80000001;stroke-linecap:butt;stroke-linejoin:miter;stroke-miterlimit:4;stroke-dasharray:none;stroke-opacity:1"
         d="M 58.068698,54.004966 C 53.262397,53.608948 51.963535,49.061177 53.231181,45.626144"
         id="path4595" />
      <path
         style="fill:#000000;fill-opacity:1;stroke:none;stroke-width:0.80000001;stroke-miterlimit:4;stroke-dasharray:none;stroke-opacity:1"
         d="m 55.649899,45.336895 c 0,1.388259 -1.718749,1.1526 -2.355312,1.1526 -0.636564,0 -0.551245,-0.516037 -0.551244,-1.1526 -1e-6,-0.636563 -0.08532,-1.1526 0.551244,-1.1526 0.636563,0 2.355312,-0.135432 2.355312,1.1526 z"
         id="path4597" />
      <path
         id="path4602"
         d="m 60.487497,45.336895 c 0,1.388259 1.718749,1.1526 2.355312,1.1526 0.636564,0 0.551245,-0.516037 0.551244,-1.1526 10e-7,-0.636563 0.08532,-1.1526 -0.551244,-1.1526 -0.636563,0 -2.355312,-0.135432 -2.355312,1.1526 z"
         style="fill:#000000;fill-opacity:1;stroke:none;stroke-width:0.80000001;stroke-miterlimit:4;stroke-dasharray:none;stroke-opacity:1" />
    </g>
    <g
       transform="matrix(4.9520211,0,0,4.9520211,114.08831,-337.6997)"
       id="g4711">
      <rect
         style="fill:#000000;fill-opacity:1;stroke:none;stroke-width:0.90288734;stroke-miterlimit:4;stroke-dasharray:none;stroke-opacity:1"
         id="rect4668"
         width="0.9062109"
         height="0.24220829"
         x="-19.000551"
         y="86.44976"
         ry="0.076795332" />
      <rect
         ry="0.076795332"
         y="86.128204"
         x="-19.000551"
         height="0.24220829"
         width="0.9062109"
         id="rect4670"
         style="fill:#000000;fill-opacity:1;stroke:none;stroke-width:0.90288734;stroke-miterlimit:4;stroke-dasharray:none;stroke-opacity:1" />
      <path
         style="fill:#000000;fill-opacity:1;stroke:none;stroke-width:0.82505447;stroke-miterlimit:4;stroke-dasharray:none;stroke-opacity:1"
         d="m -18.891249,86.758792 h 0.68774 c 0.03888,0 0.09049,0.03703 0.07018,0.07018 l -0.04961,0.08098 c -0.02031,0.03315 -0.0313,0.07018 -0.07018,0.07018 h -0.601878 c -0.03888,0 -0.05429,-0.03469 -0.07018,-0.07018 l -0.03625,-0.08098 c -0.01588,-0.03548 0.0313,-0.07018 0.07018,-0.07018 z"
         id="rect4672" />
      <path
         style="fill:none;stroke:#000000;stroke-width:0.26458332px;stroke-linecap:butt;stroke-linejoin:miter;stroke-opacity:1"
         d="m -18.953237,86.009502 c 0.0753,-0.438064 -0.536935,-0.371465 -0.537436,-1.541433 0,0 0.05629,-0.879978 0.950847,-0.879978"
         id="path4675" />
      <path
         id="path4677"
         d="m -18.126415,86.009502 c -0.0753,-0.438064 0.536935,-0.371465 0.537436,-1.541433 0,0 -0.05629,-0.879978 -0.950847,-0.879978"
         style="fill:none;stroke:#000000;stroke-width:0.26458332px;stroke-linecap:butt;stroke-linejoin:miter;stroke-opacity:1" />
      <rect
         style="fill:#000000;fill-opacity:1;stroke:none;stroke-width:0.80000001;stroke-miterlimit:4;stroke-dasharray:none;stroke-opacity:1"
         id="rect4679"
         width="0.63476509"
         height="0.31738254"
         x="-20.497679"
         y="84.317879"
         ry="0.07679531" />
      <rect
         ry="0.07679531"
         y="63.707386"
         x="-60.338367"
         height="0.31738254"
         width="0.63476509"
         id="rect4681"
         style="fill:#000000;fill-opacity:1;stroke:none;stroke-width:0.80000001;stroke-miterlimit:4;stroke-dasharray:none;stroke-opacity:1"
         transform="rotate(-30)" />
      <rect
         transform="rotate(45)"
         style="fill:#000000;fill-opacity:1;stroke:none;stroke-width:0.80000001;stroke-miterlimit:4;stroke-dasharray:none;stroke-opacity:1"
         id="rect4683"
         width="0.63476509"
         height="0.31738254"
         x="44.71582"
         y="73.106651"
         ry="0.07679531" />
      <rect
         ry="0.07679531"
         y="58.153038"
         x="61.941231"
         height="0.31738254"
         width="0.63476509"
         id="rect4685"
         style="fill:#000000;fill-opacity:1;stroke:none;stroke-width:0.80000001;stroke-miterlimit:4;stroke-dasharray:none;stroke-opacity:1"
         transform="rotate(60)" />
      <rect
         transform="rotate(90)"
         style="fill:#000000;fill-opacity:1;stroke:none;stroke-width:0.80000001;stroke-miterlimit:4;stroke-dasharray:none;stroke-opacity:1"
         id="rect4687"
         width="0.63476509"
         height="0.31738254"
         x="82.580635"
         y="18.367872"
         ry="0.07679531" />
      <rect
         ry="0.07679531"
         y="-26.359777"
         x="80.480331"
         height="0.31738254"
         width="0.63476509"
         id="rect4689"
         style="fill:#000000;fill-opacity:1;stroke:none;stroke-width:0.80000001;stroke-miterlimit:4;stroke-dasharray:none;stroke-opacity:1"
         transform="rotate(120)" />
      <rect
         transform="rotate(150)"
         style="fill:#000000;fill-opacity:1;stroke:none;stroke-width:0.80000001;stroke-miterlimit:4;stroke-dasharray:none;stroke-opacity:1"
         id="rect4691"
         width="0.63476509"
         height="0.31738254"
         x="56.323421"
         y="-64.066765"
         ry="0.07679531" />
      <rect
         ry="0.07679531"
         y="-84.610214"
         x="16.580503"
         height="0.31738254"
         width="0.63476509"
         id="rect4693"
         style="fill:#000000;fill-opacity:1;stroke:none;stroke-width:0.80000001;stroke-miterlimit:4;stroke-dasharray:none;stroke-opacity:1"
         transform="scale(-1)" />
      <rect
         transform="rotate(-150)"
         style="fill:#000000;fill-opacity:1;stroke:none;stroke-width:0.80000001;stroke-miterlimit:4;stroke-dasharray:none;stroke-opacity:1"
         id="rect4695"
         width="0.63476509"
         height="0.31738254"
         x="-28.216318"
         y="-82.560814"
         ry="0.07679531" />
    </g>
  </g>
</svg>
